PathFileType	4	(X/Y/Z)	 New Session 103.trc
DataRate	CameraRate	NumFrames	NumMarkers	Units	OrigDataRate	OrigDataStartFrame	OrigNumFrames
100	100	19	14	m	100	1	620
Frame#	Time	C7			T8			IJ			PX			AA			AC			AI			TS			SC			GH			LE			ME			US			RS			
		X1	Y1	Z1	X2	Y2	Z2	X3	Y3	Z3	X4	Y4	Z4	X5	Y5	Z5	X6	Y6	Z6	X7	Y7	Z7	X8	Y8	Z8	X9	Y9	Z9	X10	Y10	Z10	X11	Y11	Z11	X12	Y12	Z12	X13	Y13	Z13	X14	Y14	Z14	
1	0.0100	0.030232	0.097221	0.166362	0.024878	-0.118462	0.230186	0.000000	0.000000	0.000000	-0.005238	-0.141214	-0.071189	0.225315	-0.010368	0.134731	0.175046	0.036318	0.067080	0.111063	0.016015	0.198879	0.107416	-0.102420	0.229527	0.025220	0.007332	0.004120	0.236599	0.002642	0.094310	0.267619	-0.287229	0.014498	0.181759	-0.303812	-0.021345	0.297035	-0.539198	-0.110201	0.364212	-0.502893	-0.120093	
2	0.0200	0.030238	0.097178	0.166397	0.024887	-0.118486	0.230218	-0.000007	0.000008	0.000047	-0.005253	-0.141211	-0.071156	0.225333	-0.010397	0.134751	0.175054	0.036290	0.067086	0.111085	0.015975	0.198879	0.107458	-0.102454	0.229553	0.025161	0.007313	0.004160	0.236601	0.002615	0.094319	0.267570	-0.287250	0.014519	0.181835	-0.303860	-0.021218	0.297014	-0.539252	-0.110168	0.364192	-0.502956	-0.119975	
3	0.0300	0.030241	0.097144	0.166431	0.024897	-0.118505	0.230252	-0.000017	0.000017	0.000089	-0.005269	-0.141201	-0.071135	0.225338	-0.010421	0.134766	0.175049	0.036258	0.067098	0.111092	0.015942	0.198887	0.107489	-0.102480	0.229576	0.025122	0.007306	0.004194	0.236603	0.002593	0.094333	0.267529	-0.287255	0.014525	0.014288	-1.435797	-0.539703	0.296998	-0.539302	-0.110105	0.364178	-0.503014	-0.119868	
4	0.0400	0.030242	0.097120	0.166463	0.024907	-0.118519	0.230287	-0.000030	0.000027	0.000127	-0.005290	-0.141183	-0.071123	0.225330	-0.010439	0.134779	0.175036	0.036233	0.067117	0.111088	0.015919	0.198903	0.107510	-0.102497	0.229596	0.025098	0.007309	0.004226	0.236601	0.002581	0.094353	0.267503	-0.287245	0.014520	0.181904	-0.303870	-0.021189	0.296980	-0.539347	-0.110022	0.364168	-0.503067	-0.119773	
5	0.0500	0.030240	0.097109	0.166493	0.024916	-0.118527	0.230324	-0.000044	0.000036	0.000162	-0.005314	-0.141160	-0.071113	0.225312	-0.010448	0.134794	0.175021	0.036225	0.067144	0.111078	0.015907	0.198927	0.107523	-0.102506	0.229612	0.025077	0.007317	0.004255	0.236592	0.002579	0.094375	0.267496	-0.287214	0.014511	0.181894	-0.303834	-0.021269	0.296958	-0.539380	-0.109930	0.364157	-0.503111	-0.119686	
6	0.0600	0.030238	0.097110	0.166521	0.024926	-0.118531	0.230362	-0.000059	0.000046	0.000193	-0.005341	-0.141137	-0.071100	0.225291	-0.010446	0.134815	0.175008	0.036240	0.067173	0.111069	0.015908	0.198954	0.107529	-0.102507	0.229626	0.025053	0.007330	0.004283	0.236574	0.002590	0.094399	0.267497	-0.287155	0.014503	0.181853	-0.303776	-0.021387	0.296936	-0.539392	-0.109841	0.364142	-0.503145	-0.119605	
7	0.0700	0.030237	0.097122	0.166547	0.024936	-0.118531	0.230401	-0.000075	0.000055	0.000221	-0.005368	-0.141120	-0.071080	0.225277	-0.010435	0.134842	0.175000	0.036271	0.067199	0.111066	0.015920	0.198984	0.107529	-0.102502	0.229636	0.025031	0.007343	0.004309	0.236552	0.002608	0.094426	0.267503	-0.287083	0.014495	0.181791	-0.303703	-0.021521	0.296915	-0.539388	-0.109771	0.364122	-0.503169	-0.119527	
8	0.0800	0.030236	0.097139	0.166570	0.024946	-0.118528	0.230441	-0.000091	0.000063	0.000248	-0.005392	-0.141113	-0.071056	0.225273	-0.010420	0.134867	0.174997	0.036306	0.067220	0.111068	0.015934	0.199014	0.107526	-0.102495	0.229645	0.025017	0.007350	0.004337	0.236532	0.002628	0.094455	0.267520	-0.287031	0.014489	0.181728	-0.303628	-0.021646	0.296883	-0.539382	-0.109730	0.364100	-0.503190	-0.119451	
9	0.0900	0.030234	0.097157	0.166593	0.024956	-0.118523	0.230483	-0.000105	0.000070	0.000273	-0.005414	-0.141117	-0.071032	0.225280	-0.010403	0.134883	0.174998	0.036333	0.067236	0.111073	0.015947	0.199041	0.107522	-0.102487	0.229654	0.025012	0.007351	0.004365	0.236522	0.002643	0.094481	0.267548	-0.287013	0.014491	0.181684	-0.303565	-0.021732	0.296831	-0.539393	-0.109714	0.364077	-0.503211	-0.119375	
10	0.1000	0.030231	0.097170	0.166614	0.024966	-0.118517	0.230526	-0.000116	0.000073	0.000297	-0.005436	-0.141126	-0.071009	0.225290	-0.010385	0.134888	0.174997	0.036349	0.067246	0.111077	0.015956	0.199065	0.107517	-0.102483	0.229664	0.025006	0.007349	0.004388	0.236523	0.002654	0.094501	0.267572	-0.287015	0.014509	0.181669	-0.303529	-0.021754	0.296771	-0.539422	-0.109703	0.364060	-0.503234	-0.119303	
11	0.1100	0.030224	0.097175	0.166635	0.024977	-0.118511	0.230571	-0.000123	0.000075	0.000320	-0.005458	-0.141136	-0.070986	0.225296	-0.010367	0.134887	0.174992	0.036352	0.067252	0.111076	0.015961	0.199084	0.107516	-0.102484	0.229674	0.024990	0.007350	0.004405	0.236533	0.002664	0.094510	0.267579	-0.287016	0.014546	0.181683	-0.303527	-0.021710	0.296724	-0.539453	-0.109672	0.364052	-0.503256	-0.119235	
12	0.1200	0.030217	0.097169	0.166655	0.024988	-0.118505	0.230617	-0.000126	0.000074	0.000343	-0.005481	-0.141144	-0.070962	0.225293	-0.010351	0.134887	0.174982	0.036346	0.067257	0.111073	0.015960	0.199099	0.107519	-0.102491	0.229684	0.024960	0.007355	0.004424	0.236536	0.002672	0.094505	0.267563	-0.287008	0.014597	0.181718	-0.303557	-0.021617	0.296706	-0.539478	-0.109615	0.364053	-0.503274	-0.119173	
13	0.1300	0.030211	0.097155	0.166671	0.025000	-0.118499	0.230664	-0.000126	0.000071	0.000366	-0.005503	-0.141150	-0.070935	0.225286	-0.010339	0.134891	0.174965	0.036333	0.067264	0.111070	0.015954	0.199112	0.107527	-0.102501	0.229693	0.024925	0.007360	0.004446	0.236524	0.002673	0.094489	0.267531	-0.286992	0.014652	0.181760	-0.303605	-0.021493	0.296722	-0.539494	-0.109539	0.364062	-0.503290	-0.119121	
14	0.1400	0.030210	0.097137	0.166681	0.025013	-0.118494	0.230711	-0.000126	0.000064	0.000389	-0.005523	-0.141158	-0.070905	0.225278	-0.010330	0.134897	0.174945	0.036319	0.067272	0.111069	0.015946	0.199123	0.107541	-0.102509	0.229701	0.024897	0.007361	0.004470	0.236504	0.002669	0.094472	0.267498	-0.286977	0.014705	0.181800	-0.303657	-0.021363	0.296768	-0.539504	-0.109445	0.364074	-0.503301	-0.119081	
15	0.1500	0.030212	0.097125	0.166685	0.025026	-0.118489	0.230755	-0.000128	0.000055	0.000411	-0.005539	-0.141169	-0.070872	0.225271	-0.010324	0.134901	0.174927	0.036308	0.067279	0.111070	0.015944	0.199130	0.107556	-0.102507	0.229713	0.024885	0.007354	0.004490	0.236490	0.002668	0.094465	0.267482	-0.286970	0.014753	0.181828	-0.303699	-0.021241	0.296823	-0.539507	-0.109347	0.364085	-0.503306	-0.119055	
16	0.1600	0.030215	0.097124	0.166684	0.025041	-0.118485	0.230793	-0.000133	0.000042	0.000434	-0.005547	-0.141180	-0.070836	0.225264	-0.010319	0.134904	0.174916	0.036306	0.067282	0.111073	0.015955	0.199135	0.107569	-0.102493	0.229732	0.024887	0.007341	0.004507	0.236488	0.002679	0.094470	0.267492	-0.286976	0.014794	0.181841	-0.303724	-0.021136	0.296862	-0.539503	-0.109265	0.364093	-0.503302	-0.119035	
17	0.1700	0.030215	0.097135	0.166682	0.025055	-0.118484	0.230820	-0.000142	0.000026	0.000457	-0.005549	-0.141189	-0.070801	0.225265	-0.010304	0.134907	0.174912	0.036318	0.067283	0.111077	0.015979	0.199136	0.107579	-0.102466	0.229757	0.024897	0.007325	0.004523	0.236498	0.002707	0.094485	0.267523	-0.286989	0.014826	0.181839	-0.303730	-0.021050	0.296885	-0.539486	-0.109199	0.364100	-0.503288	-0.119016	
18	0.1800	0.030208	0.097155	0.166680	0.025069	-0.118486	0.230831	-0.000155	0.000008	0.000479	-0.005545	-0.141193	-0.070772	0.225277	-0.010274	0.134908	0.174910	0.036343	0.067283	0.111078	0.016015	0.199137	0.107584	-0.102430	0.229788	0.024906	0.007314	0.004535	0.236510	0.002748	0.094503	0.267558	-0.287002	0.014852	0.181825	-0.303721	-0.020976	0.296905	-0.539455	-0.109140	0.364106	-0.503267	-0.118992	
19	0.1900	0.030193	0.097177	0.166683	0.025083	-0.118493	0.230819	-0.000171	-0.000013	0.000503	-0.005533	-0.141196	-0.070751	0.225289	-0.010237	0.134911	0.174909	0.036374	0.067282	0.111075	0.016051	0.199139	0.107584	-0.102394	0.229820	0.024909	0.007312	0.004542	0.236510	0.002789	0.094522	0.267582	-0.287004	0.014880	0.181804	-0.303708	-0.020899	0.296910	-0.539425	-0.109091	0.364113	-0.503245	-0.118959	
